<svg xmlns="http://www.w3.org/2000/svg" viewBox="0 0 24 24" fill="none">
  <defs>
    <linearGradient id="flask-gradient" x1="0%" y1="0%" x2="100%" y2="100%">
      <stop offset="0%" stop-color="#8b5cf6" />
      <stop offset="50%" stop-color="#3b82f6" />
      <stop offset="100%" stop-color="#06b6d4" />
    </linearGradient>
    <linearGradient id="bg" x1="0%" y1="0%" x2="0%" y2="100%">
      <stop offset="0%" stop-color="#0f172a" />
      <stop offset="100%" stop-color="#1e293b" />
    </linearGradient>
  </defs>
  
  <rect width="24" height="24" rx="5" fill="url(#bg)" />
  
  <path d="M10 3.5v6.5a2 2 0 0 1-.2.9L4.7 19.5a1 1 0 0 0 .9 1.45h12.8a1 1 0 0 0 .9-1.45L14.2 10.9a2 2 0 0 1-.2-.9v-6.5" fill="url(#flask-gradient)" fill-opacity="0.2" stroke="url(#flask-gradient)" stroke-width="1.8" stroke-linecap="round" stroke-linejoin="round" />
  
  <path d="M8.5 3.5h7" stroke="url(#flask-gradient)" stroke-width="1.8" stroke-linecap="round" />
  
  <path d="M7 15.5h10" stroke="url(#flask-gradient)" stroke-width="1.2" stroke-linecap="round" stroke-dasharray="2 2" />
  
  <circle cx="10" cy="18" r="1.2" fill="#fff" opacity="0.8" />
  <circle cx="13.5" cy="19" r="0.8" fill="#fff" opacity="0.5" />
  <circle cx="12" cy="16" r="1" fill="#fff" opacity="0.6" />
</svg>